<svg width="10" height="14" viewBox="0 0 10 14" fill="none" xmlns="http://www.w3.org/2000/svg">
<g id="noun-microphone-862192">
<g id="Group 11">
<path id="Path 31" d="M5.24501 1C4.88047 0.999701 4.51944 1.06715 4.18259 1.19851C3.84574 1.32987 3.53967 1.52259 3.2819 1.76558C3.02414 2.00856 2.81973 2.29707 2.68037 2.6146C2.54102 2.93213 2.46945 3.27244 2.46977 3.61607V7.31012C2.46977 8.00405 2.7622 8.66957 3.28274 9.16025C3.80327 9.65092 4.50926 9.92657 5.24541 9.92657C5.98156 9.92657 6.68755 9.65092 7.20808 9.16025C7.72862 8.66957 8.02105 8.00405 8.02105 7.31012V3.61607C8.02137 3.27238 7.94978 2.93199 7.81037 2.61441C7.67096 2.29683 7.46648 2.00829 7.20863 1.7653C6.95077 1.5223 6.64461 1.32964 6.30767 1.19832C5.97072 1.067 5.60961 0.9996 5.24501 1ZM5.24501 1.30519C5.56695 1.30408 5.88595 1.36302 6.18361 1.47864C6.48128 1.59427 6.75173 1.7643 6.97938 1.97889C7.20703 2.19349 7.38739 2.44842 7.51005 2.72901C7.63271 3.0096 7.69525 3.31031 7.69407 3.61379V7.30784C7.69407 7.92012 7.43605 8.50733 6.97676 8.94027C6.51747 9.37322 5.89454 9.61644 5.24501 9.61644C4.59547 9.61644 3.97254 9.37322 3.51325 8.94027C3.05396 8.50733 2.79593 7.92012 2.79593 7.30784V3.61379C2.79519 3.31057 2.85805 3.01018 2.9809 2.72994C3.10375 2.4497 3.28417 2.19512 3.51178 1.98085C3.73939 1.76658 4.00969 1.59683 4.30715 1.48139C4.6046 1.36596 4.92333 1.30711 5.24501 1.30822V1.30519ZM1.14326 5.45623C1.10316 5.46209 1.06663 5.48135 1.04033 5.51048C1.01403 5.53961 0.99972 5.57667 1 5.61492V7.30784C1.00345 8.3413 1.42973 9.33366 2.19005 10.0782C2.95036 10.8228 3.9861 11.2622 5.08152 11.3048V12.6948H2.95942C2.91649 12.6948 2.87532 12.7109 2.84496 12.7395C2.81461 12.7681 2.79755 12.8069 2.79755 12.8474C2.79755 12.8879 2.81461 12.9267 2.84496 12.9553C2.87532 12.9839 2.91649 13 2.95942 13H7.53059C7.57352 13 7.61469 12.9839 7.64505 12.9553C7.6754 12.9267 7.69246 12.8879 7.69246 12.8474C7.69246 12.8069 7.6754 12.7681 7.64505 12.7395C7.61469 12.7109 7.57352 12.6948 7.53059 12.6948H5.40849V11.3048C6.50391 11.2622 7.53964 10.8228 8.29996 10.0782C9.06028 9.33366 9.48656 8.3413 9.49001 7.30784V5.61492C9.49001 5.57446 9.47295 5.53565 9.4426 5.50703C9.41224 5.47842 9.37107 5.46233 9.32814 5.46233C9.28521 5.46233 9.24403 5.47842 9.21368 5.50703C9.18332 5.53565 9.16627 5.57446 9.16627 5.61492V7.30784C9.17373 7.79737 9.07789 8.28341 8.88432 8.73771C8.69075 9.19202 8.40331 9.60552 8.03871 9.95418C7.67411 10.3028 7.23963 10.5797 6.76051 10.7687C6.28139 10.9577 5.76721 11.055 5.24784 11.055C4.72847 11.055 4.21428 10.9577 3.73517 10.7687C3.25605 10.5797 2.82156 10.3028 2.45696 9.95418C2.09236 9.60552 1.80492 9.19202 1.61135 8.73771C1.41778 8.28341 1.32194 7.79737 1.32941 7.30784V5.61492C1.32884 5.59289 1.32348 5.57122 1.31366 5.55122C1.30383 5.53123 1.28976 5.51331 1.27231 5.49865C1.25486 5.48399 1.2344 5.47287 1.2122 5.46596C1.19001 5.45906 1.16654 5.45652 1.14326 5.45851V5.45623Z" fill="#101010" fill-opacity="0.2" stroke="#101010" stroke-opacity="0.2" stroke-width="0.5" stroke-linecap="square"/>
</g>
</g>
</svg>
